<svg xmlns="http://www.w3.org/2000/svg" width="256" height="256" viewBox="0 0 256 256">
  <defs>
    <linearGradient id="g1" x1="0" x2="1" y1="0" y2="1">
      <stop offset="0" stop-color="#0b3d91"/>
      <stop offset="1" stop-color="#22a35a"/>
    </linearGradient>
    <filter id="shadow" x="-20%" y="-20%" width="140%" height="140%">
      <feDropShadow dx="0" dy="10" stdDeviation="12" flood-color="#0b3d91" flood-opacity="0.25"/>
    </filter>
  </defs>
  <rect x="22" y="22" width="212" height="212" rx="56" fill="url(#g1)" filter="url(#shadow)"/>
  <path d="M72 136c0-36 26-64 64-64s64 28 64 64-26 64-64 64-64-28-64-64Z" fill="rgba(255,255,255,0.18)"/>
  <path d="M93 132c4-18 20-31 41-31 17 0 32 9 39 23 2 4 0 9-4 11l-4 2c-4 2-9 0-11-4-4-9-13-15-24-15-13 0-24 9-27 22-2 5-6 7-11 6l-5-1c-5-1-8-6-7-13Z" fill="#fff"/>
  <path d="M98 165c-3-4-2-10 2-13l5-3c4-2 9-1 12 3 5 6 13 10 23 10 14 0 25-7 28-19 1-5 6-8 11-7l5 1c5 1 8 6 7 12-5 20-23 34-49 34-18 0-35-7-44-18Z" fill="#fff"/>
  <text x="128" y="210" font-family="system-ui,Segoe UI,Arial" font-size="26" text-anchor="middle" fill="rgba(255,255,255,0.92)" font-weight="800">SCTS</text>
</svg>
